<svg xmlns="http://www.w3.org/2000/svg" width="178" height="164" viewBox="0 0 712 656" version="1.1">
	<path d="M 75.785 19.962 C 25.013 20.461, 20.942 20.629, 19.285 22.286 C 17.599 23.972, 17.485 29.595, 17.236 123.493 L 16.971 222.914 19.236 224.207 C 22.420 226.025, 232.900 225.531, 234.646 223.701 C 236.497 221.761, 236.970 24.079, 235.131 21.178 C 234.135 19.608, 165.234 19.082, 75.785 19.962 M 339.228 20.106 C 336.241 21.218, 336.165 21.544, 335.691 35.307 C 335.468 41.801, 334.851 47.549, 334.321 48.079 C 333.791 48.609, 327.390 49.145, 320.097 49.271 C 303.439 49.559, 304 49.006, 304 65.109 C 304 71.559, 304.273 77.548, 304.607 78.418 C 305.119 79.753, 307.348 80.002, 318.857 80.015 C 326.361 80.024, 333.175 80.457, 334 80.977 C 335.155 81.706, 335.572 84.517, 335.815 93.212 C 336.254 108.928, 336.670 108.525, 320.380 108.164 C 313.329 108.008, 307.034 107.443, 306.390 106.908 C 305.673 106.314, 305.074 101.698, 304.845 95.004 C 304.625 88.588, 303.995 83.595, 303.320 82.920 C 301.424 81.024, 274.472 82.100, 272.418 84.153 C 270.962 85.610, 270.807 93.638, 270.819 167.429 C 270.829 230.531, 271.112 249.430, 272.061 250.574 C 273.918 252.811, 369.590 252.256, 371.034 250 C 371.626 249.077, 371.900 228.001, 371.747 195.172 C 371.507 143.387, 371.556 141.802, 373.441 140.422 C 374.887 139.363, 378.747 139, 388.569 139 C 399.314 139, 401.996 138.710, 403.054 137.435 C 403.784 136.555, 404.824 130.749, 405.427 124.185 C 406.017 117.758, 406.864 111.938, 407.309 111.250 C 407.885 110.360, 411.718 110, 420.625 110 C 432.621 110, 436.459 109.259, 438.235 106.600 C 438.639 105.995, 438.976 86.503, 438.985 63.285 L 439 21.070 436.797 19.891 C 435.256 19.067, 430.941 18.897, 422.453 19.327 C 409.109 20.004, 407.476 20.361, 406.478 22.827 C 406.106 23.747, 405.435 42.631, 404.988 64.792 C 404.403 93.799, 403.836 105.492, 402.965 106.542 C 401.134 108.748, 375.793 108.650, 373.571 106.429 C 372.233 105.091, 371.971 100.968, 371.806 78.679 C 371.351 17.278, 371.537 21.866, 369.438 20.331 C 367.289 18.759, 343.325 18.581, 339.228 20.106 M 481.500 19.799 C 478.750 19.976, 476.140 20.476, 475.699 20.911 C 475.259 21.346, 474.672 66.586, 474.395 121.444 C 473.956 208.508, 474.081 221.475, 475.376 223.451 L 476.859 225.715 583.010 225.608 C 686.869 225.502, 689.192 225.458, 690.580 223.559 C 692.561 220.851, 692.726 24.373, 690.750 21.676 C 689.588 20.091, 682.341 19.953, 588 19.724 C 532.175 19.589, 484.250 19.623, 481.500 19.799 M 52.459 53.407 C 50.587 54.775, 50.544 56.661, 50.867 122.579 C 51.104 171.093, 51.523 190.864, 52.340 192.173 C 53.428 193.915, 56.864 194, 126.549 194 C 183.474 194, 199.996 193.723, 201.329 192.748 C 202.921 191.585, 203.022 186.665, 202.770 122.712 C 202.535 62.857, 202.305 53.803, 201 52.979 C 198.341 51.298, 54.776 51.712, 52.459 53.407 M 507.928 54.689 C 506.212 59.203, 506.164 190.288, 507.878 192.353 C 509.124 193.855, 515.671 194, 582.122 194 C 653.913 194, 655.030 193.970, 657.021 191.979 C 659.013 189.987, 659.037 189.037, 658.771 122.399 C 658.508 56.840, 658.442 54.796, 656.559 53.419 C 654.925 52.224, 643.101 52, 581.784 52 L 508.950 52 507.928 54.689 M 86.042 84.183 C 85.023 84.559, 83.889 86.231, 83.522 87.898 C 82.582 92.178, 83.921 160.201, 84.970 161.461 C 85.542 162.149, 99.757 162.500, 126.994 162.500 C 165.423 162.500, 168.242 162.381, 169.470 160.706 C 171.135 158.435, 172.393 127.530, 171.813 103.128 C 171.438 87.349, 171.223 85.634, 169.450 84.312 C 167.803 83.082, 161.325 82.907, 127.698 83.178 C 105.807 83.355, 87.062 83.807, 86.042 84.183 M 558.797 83.952 C 547.056 84.337, 541.708 84.886, 540.797 85.799 C 539.140 87.459, 538.349 156.159, 539.939 160.340 L 540.950 163 582.353 163 C 619.015 163, 623.907 162.818, 625.078 161.406 C 626.098 160.178, 626.496 152.065, 626.821 125.955 C 627.291 88.090, 627.107 85.826, 623.436 84.153 C 620.804 82.954, 591.994 82.864, 558.797 83.952 M 416.511 139.748 C 411.017 139.930, 406.193 140.407, 405.791 140.809 C 405.390 141.210, 405.018 159.965, 404.966 182.486 C 404.879 220.374, 405.002 223.529, 406.620 224.711 C 409.021 226.467, 433.534 225.367, 436.750 223.359 L 439 221.954 439 182.477 C 439 144.333, 438.932 142.932, 437 141 C 435.535 139.535, 433.862 139.056, 430.750 139.209 C 428.413 139.324, 422.005 139.567, 416.511 139.748 M 304.473 164.044 C 303.278 165.978, 303.978 218.269, 305.220 219.765 C 306.930 221.826, 333.673 221.140, 335.023 219 C 335.555 218.157, 335.976 205.994, 335.985 191.225 L 336 164.950 333.435 163.975 C 329.935 162.645, 305.302 162.703, 304.473 164.044 M 407.867 255.659 C 406.683 257.016, 406.112 260.474, 405.696 268.818 C 405.375 275.253, 404.619 280.754, 403.943 281.568 C 403.011 282.692, 399.594 283, 388.078 283 C 377.995 283, 373.024 283.376, 372.200 284.200 C 371.409 284.991, 371 289.229, 371 296.629 C 371 304.965, 370.636 308.221, 369.588 309.269 C 367.730 311.127, 339.335 312.523, 337.326 310.856 C 336.356 310.050, 336 306.444, 336 297.413 C 336 286.234, 335.818 284.973, 334.066 284.035 C 331.278 282.543, 306.717 282.683, 305.200 284.200 C 304.407 284.993, 303.995 289.319, 303.985 296.950 C 303.976 303.302, 303.542 309.175, 303.020 310 C 302.198 311.299, 295.706 311.500, 254.586 311.500 C 221.049 311.500, 206.773 311.827, 205.987 312.613 C 205.281 313.319, 204.882 318.495, 204.896 326.774 C 204.912 335.830, 204.548 340.103, 203.709 340.739 C 203.017 341.264, 177.683 341.760, 144.500 341.900 C 94.428 342.110, 86.227 341.940, 84.500 340.654 C 82.674 339.295, 82.500 338.002, 82.500 325.832 L 82.500 312.500 96.704 312 C 106.432 311.658, 111.316 311.091, 112.204 310.202 C 113.048 309.357, 113.618 305.286, 113.839 298.527 C 114.129 289.651, 114.469 287.885, 116.193 286.325 C 118.088 284.610, 121.610 284.486, 174.799 284.270 C 224.423 284.068, 231.580 283.849, 232.944 282.487 C 234.822 280.612, 235.863 258.463, 234.153 256.753 C 233.078 255.678, 88.292 255.455, 84.927 256.523 C 82.290 257.360, 82.228 257.869, 81.444 284.884 C 81.042 298.730, 80.414 310.244, 80.048 310.470 C 78.175 311.628, 53.963 311.363, 52.772 310.172 C 51.853 309.253, 51.292 301.816, 50.746 283.308 C 50.080 260.691, 49.789 257.557, 48.246 256.360 C 47.286 255.615, 45.600 255.223, 44.500 255.489 C 43.400 255.755, 37.470 255.979, 31.321 255.986 C 22.385 255.997, 19.819 256.323, 18.531 257.612 C 17.080 259.063, 16.947 264.597, 17.209 312.701 L 17.500 366.178 19.861 368.089 C 21.900 369.740, 23.904 370, 34.588 370 C 49.690 370, 49.562 370.116, 50.252 355.772 C 50.525 350.074, 51.242 345.413, 51.982 344.522 C 53.492 342.702, 75.826 342.301, 79.066 344.035 C 80.901 345.018, 81 346.387, 81 370.913 C 81 393.731, 81.194 396.916, 82.654 398.128 C 83.935 399.191, 90.130 399.580, 110.169 399.855 C 143.069 400.307, 141 401.263, 141 385.599 C 141 371.176, 140.543 371.600, 155.744 371.904 C 171.711 372.223, 171 371.570, 171 385.913 C 171 395.712, 171.286 397.992, 172.655 399.128 C 174.689 400.815, 232.643 400.481, 234.750 398.770 C 236.461 397.381, 236.505 373.905, 234.800 372.200 C 233.992 371.392, 229.430 371, 220.835 371 C 205.363 371, 206.027 371.681, 205.260 355.025 C 204.828 345.657, 204.999 343.111, 206.110 342.396 C 206.874 341.903, 228.516 341.275, 254.201 341 C 290.601 340.610, 301.189 340.214, 302.201 339.203 C 303.078 338.327, 303.608 334.042, 303.833 326.007 C 304.062 317.793, 304.569 313.773, 305.469 313.026 C 306.307 312.330, 311.901 312.043, 321.136 312.222 L 335.500 312.500 335.769 325.500 C 335.992 336.277, 336.324 338.714, 337.710 339.750 C 338.940 340.669, 346.275 341.024, 365.441 341.092 C 411.853 341.256, 437.938 342.287, 439.021 344 C 439.543 344.825, 439.983 350.225, 440 356 C 440.017 361.775, 440.456 367.175, 440.977 368 C 441.708 369.160, 445.618 369.727, 458.212 370.500 L 474.500 371.500 474.778 384.651 C 474.970 393.696, 475.449 398.128, 476.314 398.846 C 478.356 400.540, 503.343 400.783, 505.342 399.128 C 506.714 397.992, 506.997 395.749, 506.985 386.128 C 506.976 379.732, 506.544 373.825, 506.023 373 C 505.285 371.830, 502.046 371.386, 491.289 370.980 C 483.705 370.694, 476.938 370.105, 476.250 369.671 C 475.298 369.070, 475 362.137, 475 340.596 L 475 312.310 442.378 311.733 C 420.260 311.342, 409.393 310.794, 408.628 310.031 C 406.891 308.297, 406.489 287.661, 408.167 286.306 C 409.656 285.102, 423.960 283, 430.659 283 C 438 283, 439 281.149, 439 267.559 C 439 259.504, 438.630 255.879, 437.750 255.309 C 437.063 254.864, 430.419 254.347, 422.987 254.159 C 410.860 253.854, 409.309 254.008, 407.867 255.659 M 531.781 255.750 C 477.838 256.013, 477.046 256.046, 475.968 258.060 C 475.218 259.461, 475.057 267.234, 475.454 282.801 C 475.773 295.286, 476.027 306.738, 476.017 308.250 L 476 311 489.929 311 C 507.404 311, 507 311.299, 507 298.363 C 507 284.647, 506.508 285.086, 521.235 285.693 C 536.890 286.338, 537 286.435, 537 299.576 C 537 311.118, 536.836 310.995, 552.184 311.014 C 558.408 311.021, 564.513 311.299, 565.750 311.630 L 568 312.233 568 340.641 L 568 369.050 570.565 370.025 C 571.976 370.561, 584.237 371.007, 597.815 371.015 C 615.666 371.025, 623.192 371.379, 625 372.291 C 627.414 373.509, 627.517 373.969, 628 385.730 C 628.325 393.654, 628.945 398.352, 629.772 399.177 C 631.017 400.417, 633.003 400.604, 647.750 400.870 C 658.010 401.054, 658.572 401.782, 658.836 415.220 C 659.004 423.775, 658.738 426.119, 657.451 427.406 C 656.043 428.814, 650.953 429, 613.863 429 C 586.827 429, 571.180 428.631, 569.934 427.965 C 568.094 426.980, 568 425.596, 568 399.524 C 568 380.219, 567.666 371.911, 566.869 371.419 C 565.066 370.305, 540.746 370.966, 539.296 372.169 C 538.376 372.933, 538 376.484, 538 384.400 C 538 400.289, 538.297 400, 522.002 400 C 514.916 400, 508.859 400.419, 508.543 400.931 C 507.849 402.054, 507.077 488.968, 507.745 490.750 C 508.086 491.660, 511.671 492, 520.916 492 C 537.648 492, 537.397 491.808, 537.845 504.949 C 538.352 519.844, 538.200 520, 523.168 520 C 507.119 520, 507.587 520.448, 507.171 504.692 L 506.842 492.218 503.796 491.609 C 502.121 491.274, 495.395 491, 488.850 491 C 476.997 491, 476.947 491.010, 475.975 493.565 C 475.439 494.976, 475 506.644, 475 519.494 C 475 539.400, 474.767 543.090, 473.429 544.429 C 472.133 545.724, 468.752 546.031, 454.179 546.176 C 407.303 546.643, 409.008 546.564, 407.201 548.368 C 405.833 549.734, 405.457 552.256, 405.281 561.232 C 405.160 567.373, 404.864 572.913, 404.622 573.544 C 404.333 574.295, 398.752 574.932, 388.418 575.393 C 379.747 575.780, 372.281 576.326, 371.827 576.607 C 370.469 577.446, 370.813 603.413, 372.200 604.800 C 373.028 605.628, 378.099 606, 388.545 606 C 407.873 606, 406.995 605.236, 407.015 622.079 C 407.024 628.910, 407.435 635.139, 407.930 635.920 C 408.605 636.987, 411.979 637.443, 421.469 637.749 C 439.337 638.327, 438.863 638.754, 439.221 621.746 L 439.500 608.500 455.980 607.818 C 467.037 607.361, 472.877 607.483, 473.730 608.191 C 474.632 608.940, 475 612.848, 475 621.688 C 475 638.715, 474.372 638, 489.313 638 C 506.583 638, 506.299 638.265, 505.849 622.527 C 505.624 614.627, 505.053 609.768, 504.237 608.785 C 503.267 607.617, 499.959 607.156, 489.949 606.794 C 482.785 606.536, 476.527 605.913, 476.042 605.412 C 475.011 604.346, 475.918 579.751, 477.056 577.909 C 477.558 577.096, 482.285 576.361, 490.594 575.803 C 497.616 575.332, 503.915 574.485, 504.593 573.923 C 505.388 573.263, 505.945 569.064, 506.163 562.100 C 506.654 546.365, 503.942 547.558, 537.380 548.368 C 552.715 548.739, 565.652 549.285, 566.130 549.581 C 567.250 550.273, 567.274 573.713, 566.155 574.404 C 565.691 574.691, 559.803 575.237, 553.072 575.618 C 544.616 576.096, 540.395 576.747, 539.417 577.726 C 538.265 578.878, 538 584.165, 538 606.016 C 538 639.878, 536.983 637.862, 554.226 638.171 C 560.676 638.286, 566.301 638.034, 566.726 637.611 C 567.152 637.187, 567.735 630.813, 568.023 623.447 C 568.356 614.911, 568.987 609.613, 569.763 608.837 C 570.640 607.960, 578.937 607.498, 599.490 607.182 L 628 606.743 628 591.931 C 628 583.784, 627.615 576.880, 627.144 576.589 C 626.673 576.298, 620.711 575.796, 613.894 575.474 C 598.145 574.729, 598.035 574.634, 598.667 562.274 C 599.416 547.649, 597.917 549, 613.397 549 C 629.974 549, 629.359 549.539, 629.823 534.610 C 630.093 525.879, 630.511 523.232, 631.775 522.250 C 632.969 521.321, 640.255 521, 660.126 521 C 675.083 521, 688 520.570, 689.435 520.025 L 692 519.050 692 491.096 C 692 466.156, 691.817 462.960, 690.305 461.448 C 688.831 459.974, 686.723 459.802, 674.055 460.127 L 659.500 460.500 659.500 447.500 C 659.500 440.350, 659.823 433.712, 660.219 432.750 C 660.855 431.201, 662.542 431, 674.897 431 C 686.255 431, 689.150 430.707, 690.429 429.429 C 692.521 427.336, 692.822 373.893, 690.750 372.259 C 690.063 371.717, 684.042 370.993, 677.371 370.651 C 664.024 369.967, 662.483 369.631, 661.456 367.173 C 660.322 364.460, 659.604 313.996, 660.683 312.917 C 661.209 312.391, 667.847 311.783, 675.434 311.566 C 683.851 311.324, 689.673 310.728, 690.365 310.038 C 692.288 308.120, 692.502 285.661, 690.612 284.093 C 688.789 282.580, 663.821 282.490, 661.024 283.987 C 659.606 284.746, 659.184 287.059, 658.611 297.195 C 658.229 303.954, 657.598 309.785, 657.208 310.154 C 655.631 311.647, 632.396 311.535, 630 310.023 C 628.753 309.236, 628.416 304.787, 628 283.689 C 627.617 264.223, 627.180 257.916, 626.128 256.651 C 624.926 255.205, 622.374 255.030, 605.628 255.241 C 595.107 255.374, 561.876 255.603, 531.781 255.750 M 570.751 285.689 C 568.324 286.323, 567.870 288.965, 568.208 300.500 L 568.500 310.500 581.709 310.779 L 594.919 311.057 596.459 308.078 C 598.311 304.497, 598.555 291.313, 596.839 287.547 C 595.688 285.020, 595.587 285.001, 584.089 285.116 C 577.715 285.180, 571.713 285.438, 570.751 285.689 M 398.401 370.967 C 378.602 371.371, 371.911 371.826, 370.680 372.849 C 369.362 373.944, 369.004 376.670, 368.778 387.325 L 368.500 400.452 323 400.482 C 276.512 400.512, 273.068 400.774, 271.685 404.378 C 270.245 408.130, 269.906 425.529, 271.224 428 L 272.558 430.500 320.529 431 L 368.500 431.500 368.778 445.224 C 369.103 461.272, 370.829 459.569, 353.399 460.404 C 341.488 460.975, 337.633 461.908, 336.654 464.459 C 336.314 465.346, 335.731 470.402, 335.359 475.694 C 334.490 488.060, 334.022 488.559, 322.348 489.572 C 309.939 490.648, 307.179 490.578, 305.750 489.152 C 304.938 488.341, 304.325 483.388, 304 475.031 C 303.725 467.951, 303.126 461.786, 302.669 461.329 C 302.212 460.873, 295.252 460.500, 287.202 460.500 C 273.409 460.500, 272.506 460.619, 271.533 462.566 C 269.894 465.845, 270.132 569.856, 271.785 572.750 L 273.070 575 303.913 575 C 331.365 575, 334.906 574.818, 336.128 573.349 C 337.029 572.264, 337.672 567.887, 338 560.599 L 338.500 549.500 353.703 549 C 364.276 548.652, 369.301 548.104, 370.203 547.199 C 371.104 546.296, 371.525 542.393, 371.584 534.416 C 371.629 528.100, 372.079 522.542, 372.584 522.063 C 373.088 521.585, 379.906 521.028, 387.735 520.826 C 406.048 520.354, 405.381 520.937, 405.855 504.980 L 406.210 493.030 403.540 492.015 C 402.071 491.457, 394.879 491, 387.557 491 C 377.415 491, 373.970 490.669, 373.092 489.611 C 372.318 488.679, 372.031 484, 372.219 475.404 L 372.500 462.587 376.500 461.713 C 382.427 460.419, 436.765 461.365, 438.187 462.787 C 438.830 463.430, 439.488 468.205, 439.693 473.715 C 440.211 487.652, 440.645 489.671, 443.275 490.376 C 446.597 491.267, 472.305 491.093, 473.758 490.171 C 474.710 489.566, 475.072 482.534, 475.250 461.214 C 475.465 435.382, 475.337 432.909, 473.707 431.278 C 472.066 429.636, 468.134 429.462, 422.215 429 L 372.500 428.500 371.792 415.041 C 371.403 407.638, 371.328 401.338, 371.624 401.041 C 371.921 400.743, 386.864 400.368, 404.832 400.207 C 433.786 399.948, 437.642 399.727, 438.750 398.266 C 439.593 397.154, 440 392.605, 440 384.284 C 440 370.066, 439.800 369.793, 429.685 370.217 C 426.833 370.337, 412.756 370.674, 398.401 370.967 M 32.281 429.935 C 23.358 430.384, 20.698 430.865, 19.281 432.285 C 17.608 433.962, 17.480 438.967, 17.166 514.785 C 16.771 610.188, 17.356 635.585, 19.981 636.990 C 21.040 637.557, 63.847 638.045, 127.450 638.216 C 231.459 638.495, 233.183 638.468, 234.594 636.540 C 235.821 634.862, 235.990 619.964, 235.764 533.209 C 235.506 434.177, 235.455 431.806, 233.559 430.419 C 231.911 429.214, 217.420 429.028, 137.559 429.185 C 85.826 429.287, 38.452 429.625, 32.281 429.935 M 539.506 433.250 C 539.269 433.938, 538.609 439.675, 538.038 446 C 536.743 460.353, 536.417 460, 551 460 C 565.324 460, 565.408 459.929, 565.829 447.332 C 566.009 441.924, 565.683 436.262, 565.103 434.750 L 564.050 432 551.993 432 C 543.245 432, 539.819 432.343, 539.506 433.250 M 52.983 462.520 C 50.878 465.055, 50.141 600.475, 52.217 603.294 C 54.267 606.079, 197.928 606.486, 200.708 603.715 C 202.376 602.054, 202.522 598.344, 202.823 550.215 C 203.217 487.121, 202.516 464.344, 200.142 463.082 C 199.239 462.603, 166.092 461.878, 126.483 461.472 C 58.058 460.771, 54.391 460.824, 52.983 462.520 M 631.252 463.720 C 629.454 465.288, 629.136 467.099, 628.593 478.900 L 627.977 492.301 641.538 491.732 C 649.988 491.378, 655.656 490.701, 656.577 489.936 C 657.772 488.944, 658.003 486.196, 657.778 475.604 L 657.500 462.500 645.397 462.220 C 634.970 461.980, 633.012 462.187, 631.252 463.720 M 102.049 492.707 C 89.521 492.988, 86.257 493.362, 84.799 494.682 C 83.129 496.193, 83 498.952, 83 533.090 C 83 554.873, 83.403 570.929, 83.987 572.466 L 84.974 575.063 127.024 574.782 C 163.104 574.540, 169.209 574.287, 170.022 573 C 171.200 571.135, 171.307 496.033, 170.135 494.184 C 169.239 492.772, 133.562 491.998, 102.049 492.707 M 613.666 492.924 C 599.914 493.655, 600 493.559, 600 508.172 C 600 518.867, 600.022 518.967, 602.517 519.594 C 606.337 520.552, 625.802 519.598, 627.006 518.394 C 628.793 516.607, 627.860 492.545, 626 492.436 C 625.175 492.388, 619.625 492.607, 613.666 492.924 M 571.587 520.834 C 570.652 521.018, 569.517 522.143, 569.066 523.334 C 567.849 526.549, 569.022 544.773, 570.526 546.022 C 571.290 546.656, 576.617 546.953, 584.141 546.782 L 596.500 546.500 596.780 534.898 C 596.986 526.400, 596.718 523.013, 595.780 522.241 C 594.569 521.244, 575.227 520.119, 571.587 520.834 M 306.089 522.393 C 305.323 523.315, 305.028 527.626, 305.216 535.143 L 305.500 546.500 318 546.789 C 336.203 547.210, 335 548.010, 335 535.481 C 335 521.091, 334.900 521, 319.122 521 C 310.190 521, 306.958 521.345, 306.089 522.393 M 271.200 608.200 C 270.393 609.007, 270 613.543, 270 622.045 C 270 638.763, 269.480 638.274, 286.768 637.831 C 295.849 637.599, 300.191 637.091, 301.350 636.128 C 302.726 634.983, 303 632.626, 303 621.913 C 303 610.239, 302.824 608.976, 301.066 608.035 C 298.274 606.541, 272.718 606.682, 271.200 608.200 M 628.667 607.667 C 628.300 608.033, 628 614.308, 628 621.610 C 628 638.475, 627.520 638, 644.568 638 C 660.449 638, 660 638.474, 660 621.706 C 660 610.237, 659.821 608.975, 658.066 608.035 C 655.961 606.908, 629.753 606.580, 628.667 607.667" stroke="none" fill="#fdd98e" fill-rule="evenodd"/>
</svg>