<svg xmlns="http://www.w3.org/2000/svg" width="127" height="122" viewBox="0 0 508 488" version="1.1">
	<path d="M 251.500 11.500 C 228.296 14.403, 208.874 19.439, 185 28.744 C 158.894 38.920, 133.630 53.200, 118 66.616 C 114.425 69.685, 110.600 72.914, 109.500 73.792 C 108.400 74.671, 101.650 80.639, 94.500 87.055 C 71.452 107.736, 63.942 116.707, 50.368 139.771 C 47.691 144.321, 43.779 150.846, 41.677 154.271 C 37.497 161.080, 28.699 179.015, 27.584 183 C 27.199 184.375, 26.272 187.075, 25.525 189 C 22.126 197.750, 16.949 217.945, 15.015 230 C 14.442 233.575, 13.499 238.300, 12.921 240.500 C 12.343 242.700, 11.626 253.725, 11.328 265 C 10.829 283.872, 10.994 286.771, 13.403 301.500 C 16.836 322.494, 20.012 334.505, 26.753 352 C 32.432 366.736, 44.546 389.668, 49.467 395 C 54.705 400.674, 54.668 400.744, 36.964 418.476 C 18.560 436.908, 18.330 437.206, 20.319 440.045 C 23.380 444.415, 31.215 452, 32.669 452 C 34.424 452, 45.152 442.787, 59.110 429.291 C 64.917 423.677, 69.536 420, 70.783 420 C 72.657 420, 76.059 422.330, 81.500 427.339 C 84.559 430.156, 100.158 440.877, 109.786 446.781 C 146.165 469.087, 186.513 479.111, 234 477.640 C 254.453 477.007, 258.709 476.564, 278.941 472.968 C 290.754 470.868, 307.798 465.974, 315.816 462.379 C 348.279 447.826, 360.164 441.423, 375.468 430.241 C 412.061 403.505, 431.312 383.508, 451.748 351 C 473.168 316.929, 486.128 283.584, 493.142 244.500 C 496.551 225.500, 496.572 189.281, 493.183 171 C 487.916 142.590, 480.657 122.518, 468.229 102 C 457.756 84.710, 453.925 79.319, 446.279 71.107 C 443.407 68.023, 441.045 64.550, 441.029 63.389 C 441.009 61.919, 445.026 57.713, 454.250 49.549 C 468.083 37.304, 469.836 35.031, 467.745 32.046 C 464.816 27.864, 457.976 21.141, 456.307 20.803 C 455.208 20.581, 450.708 23.389, 444.823 27.969 C 421.635 46.015, 416.726 48.752, 413.079 45.663 C 411.171 44.048, 397.096 36.003, 396.162 35.994 C 395.798 35.990, 394.150 35.279, 392.500 34.414 C 380.595 28.167, 350.935 18.359, 335.305 15.501 C 331.347 14.778, 327.644 13.898, 327.075 13.546 C 322.301 10.596, 270.040 9.181, 251.500 11.500 M 259 43.111 C 232.035 45.484, 205.179 53.844, 174.760 69.337 C 154.318 79.748, 148.814 83.097, 133.903 94.197 C 126.387 99.792, 99.805 126.837, 92.323 136.500 C 86.087 144.555, 72.176 165.675, 69.396 171.308 C 67.988 174.164, 66.439 177.254, 65.955 178.177 C 64.471 181.003, 56 203.001, 56 204.028 C 56 204.558, 55.161 207.581, 54.136 210.746 C 43.064 244.933, 43.108 295.445, 54.238 328.500 C 59.479 344.063, 70.679 368.659, 73.647 371.122 C 75.456 372.624, 78.782 371.267, 79.586 368.699 C 79.965 367.489, 84.388 359.300, 89.416 350.500 C 94.444 341.700, 100.057 330.675, 101.890 326 C 105.111 317.788, 115.012 296.066, 116.933 293 C 117.946 291.383, 119.376 288.464, 128.931 268.516 C 137.307 251.027, 142.116 243.548, 158 223.308 C 165.425 213.846, 173.525 203.350, 176 199.981 C 193.447 176.239, 196.528 173.138, 225.502 150.169 C 238.151 140.141, 250.300 130.460, 252.500 128.655 C 259.376 123.015, 297.129 100, 299.505 100 C 299.725 100, 306.789 96.677, 315.203 92.615 C 323.616 88.553, 333.650 84.033, 337.500 82.570 C 352.880 76.727, 354.628 76.092, 358 75.125 C 368.969 71.982, 379 67.465, 379 65.669 C 379 60.883, 356.279 50.819, 337 47.065 C 323.981 44.531, 319.600 44.004, 303.500 43.039 C 284.239 41.884, 272.735 41.902, 259 43.111 M 409.221 85.750 C 408.243 86.713, 402.956 91.520, 397.471 96.433 C 391.987 101.346, 382.487 110.346, 376.359 116.433 C 365.180 127.537, 338.012 153.546, 324.011 166.546 C 319.893 170.371, 312.225 177.775, 306.973 183 C 297.713 192.212, 291.204 198.169, 274.500 212.722 C 270.100 216.555, 259.075 226.982, 250 235.892 C 231.495 254.061, 230.110 255.364, 217.500 266.458 C 212.550 270.813, 198.150 284.368, 185.500 296.581 C 172.850 308.795, 158.675 322.306, 154 326.607 C 128.928 349.675, 93.834 388.305, 95.501 391.002 C 96.438 392.518, 100.190 392.211, 108.739 389.918 C 121.947 386.376, 162.044 372.673, 166.618 370.139 C 167.653 369.566, 179.750 364.151, 193.500 358.106 C 207.250 352.061, 221.477 345.563, 225.117 343.665 C 234.993 338.515, 252.887 328.086, 258 324.501 C 260.475 322.765, 266.930 318.322, 272.345 314.628 C 293.741 300.028, 325.029 272.747, 337.865 257.500 C 342.032 252.550, 345.723 248.275, 346.067 248 C 348.463 246.087, 376.377 210.003, 380 204.134 C 396.262 177.794, 406.339 164.500, 410.044 164.500 L 412.500 164.500 412.144 179 C 411.832 191.658, 411.472 194.262, 409.309 199.500 C 404.756 210.525, 398.428 222.442, 391.933 232.221 C 389.770 235.477, 387.998 238.447, 387.996 238.821 C 387.993 239.194, 386.306 241.754, 384.246 244.509 C 382.186 247.263, 379.161 251.538, 377.525 254.009 C 361.448 278.283, 309.785 327.828, 287.427 340.413 C 285.817 341.319, 283.150 342.925, 281.500 343.980 C 279.850 345.036, 275.350 347.743, 271.500 349.995 C 263.902 354.441, 257.314 358.496, 249.500 363.536 C 224.919 379.390, 171.833 400.051, 130 410.045 C 124.775 411.294, 120.050 412.728, 119.500 413.232 C 117.905 414.695, 123.350 418.425, 136.500 424.875 C 184.224 448.286, 242.688 451.951, 292 434.622 C 311.845 427.649, 314.597 426.488, 331.305 418.043 C 362.722 402.163, 374.688 391.997, 411.500 349.916 C 425.694 333.691, 441.631 304.956, 449.444 281.500 C 453.815 268.380, 454.859 264.500, 457.379 252 C 464.289 217.737, 464.321 184.937, 457.466 162.926 C 446.731 128.453, 440.550 115.377, 427.426 99.366 C 414.645 83.773, 412.705 82.322, 409.221 85.750 M 315 124.860 C 309.775 127.516, 303.700 130.703, 301.500 131.941 C 299.300 133.180, 295.025 135.594, 292 137.306 C 284.837 141.360, 264.121 155.372, 252.036 164.336 C 236.005 176.227, 209.684 203.629, 194.207 224.540 C 175.257 250.141, 157 278.813, 157 282.969 C 157 285.427, 165.060 278.680, 175.759 267.265 C 182.216 260.376, 190.875 251.817, 195 248.245 C 199.125 244.674, 207.699 236.745, 214.052 230.626 C 220.406 224.507, 228.731 216.605, 232.552 213.067 C 236.374 209.529, 246.475 200.055, 255 192.013 C 263.525 183.972, 273.139 174.942, 276.365 171.947 C 291.190 158.178, 328 121.736, 328 120.826 C 328 119.028, 324.078 120.245, 315 124.860" stroke="none" fill="#fdd98e" fill-rule="evenodd"/>
</svg>