<svg xmlns="http://www.w3.org/2000/svg" width="35" height="46" viewBox="0 0 140 184" version="1.1">
	<path d="M 62 8.661 C 43.506 11.065, 28.147 21.986, 20.157 38.413 C 17.926 43, 15.814 48.046, 15.465 49.627 C 15.115 51.207, 14.211 54.152, 13.454 56.171 C 5.249 78.077, 9.099 126.116, 20.641 145.836 C 36.151 172.338, 71.642 181.925, 96.705 166.382 C 104.646 161.457, 113.327 152.508, 116.646 145.822 C 120.737 137.583, 122.886 132.485, 123.527 129.500 C 123.881 127.850, 124.797 124.828, 125.563 122.785 C 129.719 111.698, 129.632 71.022, 125.424 57.774 C 119.517 39.176, 116.317 32.775, 108.826 24.573 C 98.142 12.873, 79.177 6.429, 62 8.661 M 59.319 28.794 C 40.865 35.389, 31.697 55.558, 31.724 89.500 C 31.751 123.578, 42.654 148.710, 58.870 152.077 C 78.030 156.054, 92.871 147.544, 100.857 128 C 108.826 108.496, 108.743 72.226, 100.679 50.679 C 97.958 43.410, 89.122 33.414, 82.488 30.101 C 75.976 26.849, 66.292 26.303, 59.319 28.794" stroke="none" fill="#fdd98e" fill-rule="evenodd"/>
</svg>