<svg xmlns="http://www.w3.org/2000/svg" width="15" height="20" viewBox="0 0 60 80" version="1.1">
	<path d="M 10.250 12.031 C 7.474 13.147, 7.411 14.411, 10 17 C 11.687 18.687, 13.370 19.007, 20.750 19.045 C 25.563 19.070, 30.694 19.632, 32.153 20.295 L 34.805 21.500 28.897 36 C 25.648 43.975, 21.345 53.701, 19.335 57.614 C 15.448 65.185, 15.416 68.010, 19.219 67.985 C 22.614 67.962, 23.502 67.075, 26.710 60.500 C 28.320 57.200, 31.894 50.225, 34.652 45 C 37.410 39.775, 40.949 32.350, 42.517 28.500 C 44.084 24.650, 45.899 20.825, 46.549 20 C 48.912 17.002, 49.166 13.159, 47.075 12.040 C 44.686 10.762, 13.427 10.754, 10.250 12.031" stroke="none" fill="#fdd98e" fill-rule="evenodd"/>
</svg>