<svg xmlns="http://www.w3.org/2000/svg" width="24" height="29" viewBox="0 0 96 116" version="1.1">
	<path d="M 11.441 9.418 C 9.603 10.762, 9.485 12.488, 9.209 42.036 C 8.891 76.023, 9.240 78.878, 14.762 87.464 C 22.103 98.878, 30.647 103.151, 47.375 103.775 C 58.449 104.188, 59.710 104.037, 66.075 101.540 C 78.273 96.755, 85.096 87.450, 87.206 72.723 C 87.852 68.221, 88.006 55.142, 87.615 38 C 86.904 6.769, 87.273 7.989, 78.559 8.015 C 70.029 8.041, 70.568 5.932, 69.961 41.712 C 69.499 68.942, 69.181 73.930, 67.743 76.500 C 62.815 85.305, 57.407 88.340, 47.532 87.841 C 41.076 87.515, 39.671 87.083, 36.362 84.406 C 28.599 78.122, 28.412 77.209, 27.652 41.902 C 27.055 14.156, 26.781 10.354, 25.297 9.250 C 23.016 7.552, 13.843 7.664, 11.441 9.418" stroke="none" fill="#f5d4a5" fill-rule="evenodd"/>
</svg>