<svg xmlns="http://www.w3.org/2000/svg" width="22" height="27" viewBox="0 0 88 108" version="1.1">
	<path d="M 10.867 11.133 C 9.120 12.880, 9.006 15.002, 9.100 44.250 C 9.222 82.334, 9.915 94.705, 12 96.022 C 14.152 97.381, 20.328 97.218, 22.279 95.750 C 23.568 94.780, 24.171 91.604, 24.973 81.570 C 26.245 65.643, 27.077 64, 33.868 64 C 38.935 64, 41.336 65.615, 43.487 70.467 C 45.369 74.713, 55.478 90.285, 58.500 93.592 C 61.256 96.608, 62.061 96.901, 68.385 97.188 C 78.155 97.631, 78.760 96.294, 72.838 87.346 C 56.681 62.936, 56.618 62.745, 63.250 58.154 C 72.275 51.907, 75 46.766, 75 35.982 C 75 28.496, 73.748 24.931, 69.214 19.501 C 63.188 12.284, 55.294 10.277, 30.617 9.691 C 14.165 9.301, 12.584 9.416, 10.867 11.133 M 28.038 24.907 C 26.969 25.618, 26.469 28.542, 26.179 35.760 C 25.638 49.219, 25.837 49.406, 39.942 48.750 C 45.749 48.479, 51.304 47.921, 52.287 47.508 C 56.333 45.809, 58.197 37.630, 55.958 31.399 C 54.021 26.009, 50.639 24.532, 39.500 24.217 C 34 24.061, 28.842 24.371, 28.038 24.907" stroke="none" fill="#f5d4a5" fill-rule="evenodd"/>
</svg>